<?xml version="1.0" encoding="utf-8"?>
<!-- Generator: Adobe Illustrator 16.0.3, SVG Export Plug-In . SVG Version: 6.00 Build 0)  -->
<!DOCTYPE svg PUBLIC "-//W3C//DTD SVG 1.1//EN" "http://www.w3.org/Graphics/SVG/1.1/DTD/svg11.dtd">
<svg version="1.1" id="Layer_1" xmlns="http://www.w3.org/2000/svg" xmlns:xlink="http://www.w3.org/1999/xlink" x="0px" y="0px"
	 width="1024px" height="1024px" viewBox="0 0 1024 1024" enable-background="new 0 0 1024 1024" xml:space="preserve">
<polygon fill="none" stroke="#EC008C" stroke-miterlimit="10" points="-113.476,-201.605 -0.002,-267.119 0.002,-267.117 
	104.023,-207.06 -113.476,-81.483 "/>
<polygon fill="none" stroke="#EC008C" stroke-miterlimit="10" points="-231.666,-133.369 -231.666,-133.504 -127.641,-193.562 
	-127.641,-193.429 -127.641,56.544 -231.666,-3.515 "/>
<polygon fill="none" stroke="#EC008C" stroke-miterlimit="10" points="-231.57,133.019 -231.669,132.961 -231.669,12.839 
	-231.666,12.841 -14.166,138.413 -14.166,138.564 -118.058,198.553 "/>
<polygon fill="none" stroke="#EC008C" stroke-miterlimit="10" points="113.309,201.974 -0.002,266.875 -0.429,267.119 
	-104.459,207.059 -103.893,206.733 113.309,81.357 "/>
<polygon fill="none" stroke="#EC008C" stroke-miterlimit="10" points="113.476,64.912 -0.002,130.386 -0.002,130.236 
	-113.476,64.724 -113.476,-65.13 -0.002,-130.645 113.475,-65.13 113.475,64.912 "/>
<polygon fill="none" stroke="#EC008C" stroke-miterlimit="10" points="231.67,133.549 127.639,193.607 127.639,-56.952 
	231.67,3.109 "/>
<polygon fill="none" stroke="#EC008C" stroke-miterlimit="10" points="231.67,-13.246 14.162,-138.823 118.19,-198.884 
	231.67,-133.37 "/>
<polygon fill="none" stroke="#EC008C" stroke-miterlimit="10" points="0.001,-283.464 0.001,-283.462 -0.003,-283.464 
	-245.83,-141.671 -245.83,-141.538 -245.833,141.148 -0.458,283.464 245.833,141.736 245.833,-141.538 "/>
</svg>
