<?xml version="1.0" encoding="utf-8"?>
<!-- Generator: Adobe Illustrator 16.0.3, SVG Export Plug-In . SVG Version: 6.00 Build 0)  -->
<!DOCTYPE svg PUBLIC "-//W3C//DTD SVG 1.1//EN" "http://www.w3.org/Graphics/SVG/1.1/DTD/svg11.dtd">
<svg version="1.1" id="Layer_1" xmlns="http://www.w3.org/2000/svg" xmlns:xlink="http://www.w3.org/1999/xlink" x="0px" y="0px"
	 width="1024px" height="1024px" viewBox="0 0 1024 1024" enable-background="new 0 0 1024 1024" xml:space="preserve">
<polygon fill="none" stroke="#EC008C" stroke-miterlimit="10" points="-55.179,190.127 -111.916,157.369 -111.916,157.368 
	-111.916,97.311 -3.164,160.096 "/>
<polygon fill="none" stroke="#EC008C" stroke-miterlimit="10" points="76.136,193.543 76.079,193.576 24.066,163.546 
	24.124,163.513 132.364,101.021 132.365,161.079 "/>
<polygon fill="none" stroke="#EC008C" stroke-miterlimit="10" points="192.087,3.786 192.086,3.843 140.073,33.873 140.074,33.872 
	140.073,-91.701 140.137,-91.739 192.086,-61.75 "/>
<polygon fill="none" stroke="#EC008C" stroke-miterlimit="10" points="46.969,-195.066 103.399,-162.226 103.612,-162.103 
	103.611,-102.041 103.329,-102.205 -5.26,-164.911 "/>
<polygon fill="none" stroke="#EC008C" stroke-miterlimit="10" points="-75.939,-193.609 -23.925,-163.578 -132.419,-100.938 
	-132.419,-161.001 "/>
<polygon fill="none" stroke="#EC008C" stroke-miterlimit="10" points="-140.208,-33.746 -140.208,91.833 -192.222,61.803 
	-192.224,-3.715 "/>
</svg>
