<?xml version="1.0" encoding="utf-8"?>
<!-- Generator: Adobe Illustrator 16.0.3, SVG Export Plug-In . SVG Version: 6.00 Build 0)  -->
<!DOCTYPE svg PUBLIC "-//W3C//DTD SVG 1.1//EN" "http://www.w3.org/Graphics/SVG/1.1/DTD/svg11.dtd">
<svg version="1.1" id="Layer_1" xmlns="http://www.w3.org/2000/svg" xmlns:xlink="http://www.w3.org/1999/xlink" x="0px" y="0px"
	 width="1024px" height="1024px" viewBox="0 0 1024 1024" enable-background="new 0 0 1024 1024" xml:space="preserve">
<polygon fill="none" stroke="#EC008C" stroke-miterlimit="10" points="118.839,-57.931 118.839,-68.613 109.591,-73.952 
	70.271,-51.251 9.681,-86.255 9.682,-131.634 0.43,-136.975 -8.817,-131.636 -8.817,-86.587 -70.58,-50.929 -109.593,-73.453 
	-118.84,-68.114 -118.84,-57.432 -78.652,-34.229 -78.652,34.73 -117.974,57.432 -117.974,68.114 -108.727,73.454 -69.404,50.75 
	-8.817,85.73 -8.817,131.135 0.435,136.475 9.682,131.136 9.682,86.089 69.713,51.43 108.725,73.954 117.972,68.615 117.974,57.932 
	79.428,35.678 79.427,-35.176 "/>
</svg>
