<?xml version="1.0" encoding="utf-8"?>
<!-- Generator: Adobe Illustrator 16.0.3, SVG Export Plug-In . SVG Version: 6.00 Build 0)  -->
<!DOCTYPE svg PUBLIC "-//W3C//DTD SVG 1.1//EN" "http://www.w3.org/Graphics/SVG/1.1/DTD/svg11.dtd">
<svg version="1.1" id="Layer_1" xmlns="http://www.w3.org/2000/svg" xmlns:xlink="http://www.w3.org/1999/xlink" x="0px" y="0px"
	 width="1024px" height="1024px" viewBox="0 0 1024 1024" enable-background="new 0 0 1024 1024" xml:space="preserve">
<g>
	<g>
		<path fill="#EC008C" d="M-226.398-143.649l-7.994-13.859l10.236-5.904l7.994,13.859L-226.398-143.649z M-205.926-155.458
			l-7.994-13.859l10.236-5.904l7.994,13.859L-205.926-155.458z M-185.454-167.266l-7.994-13.859l10.236-5.904l7.994,13.859
			L-185.454-167.266z M-164.981-179.075l-7.994-13.859l10.236-5.903l7.994,13.859L-164.981-179.075z M-144.509-190.882
			l-7.994-13.859l10.236-5.904l7.994,13.859L-144.509-190.882z M-124.037-202.691l-7.994-13.859l10.236-5.904l7.994,13.859
			L-124.037-202.691z M-103.564-214.5l-7.994-13.859l10.236-5.904l7.994,13.86L-103.564-214.5z M-83.092-226.308l-7.994-13.859
			l10.236-5.904l7.994,13.859L-83.092-226.308z M-62.62-238.117l-7.994-13.859l10.236-5.904l7.994,13.859L-62.62-238.117z
			 M-42.147-249.924l-7.994-13.86l10.236-5.904l7.994,13.86L-42.147-249.924z M-21.675-261.733l-7.994-13.859l10.236-5.904
			l7.994,13.859L-21.675-261.733z"/>
	</g>
	<g>
		<path fill="#EC008C" d="M-237.832,123.365h-16V111.59h16V123.365z M-237.831,99.816h-16V88.041h16V99.816z M-237.831,76.268
			l-16-0.001l0-11.775l16,0.001L-237.831,76.268z M-237.831,52.718h-16V40.942h16V52.718z M-237.831,29.169l-16-0.001l0-11.775
			l16,0.001L-237.831,29.169z M-237.83,5.619h-16V-6.156h16V5.619z M-237.83-17.93l-16-0.001l0-11.775l16,0.001L-237.83-17.93z
			 M-237.83-41.479h-16v-11.775h16V-41.479z M-237.829-65.029h-16v-11.774h16V-65.029z M-237.829-88.578h-16v-11.775h16V-88.578z
			 M-237.829-112.127h-16v-11.774h16V-112.127z"/>
	</g>
	<g>
		<path fill="#EC008C" d="M-19.878,281.442l-10.217-5.926l8.027-13.841l10.217,5.926L-19.878,281.442z M-40.313,269.589
			l-10.217-5.926l8.027-13.841l10.217,5.926L-40.313,269.589z M-60.747,257.738l-10.217-5.926l8.027-13.841l10.217,5.926
			L-60.747,257.738z M-81.181,245.886l-10.217-5.926l8.027-13.841l10.217,5.926L-81.181,245.886z M-101.615,234.034l-10.217-5.926
			l8.027-13.841l10.217,5.926L-101.615,234.034z M-122.049,222.182l-10.217-5.926l8.027-13.841l10.217,5.927L-122.049,222.182z
			 M-142.484,210.331l-10.217-5.926l8.027-13.841l10.217,5.926L-142.484,210.331z M-162.918,198.478l-10.217-5.926l8.027-13.841
			l10.217,5.926L-162.918,198.478z M-183.352,186.626l-10.217-5.926l8.027-13.841l10.217,5.926L-183.352,186.626z M-203.787,174.775
			l-10.217-5.926l8.027-13.841l10.217,5.926L-203.787,174.775z M-224.221,162.922l-10.217-5.926l8.027-13.841l10.217,5.926
			L-224.221,162.922z"/>
	</g>
	<g>
		<path fill="#EC008C" d="M18.989,281.497l-7.98-13.868l10.256-5.901l7.98,13.868L18.989,281.497z M39.501,269.693l-7.98-13.867
			l10.256-5.902l7.98,13.867L39.501,269.693z M60.013,257.889l-7.98-13.868l10.256-5.902l7.98,13.868L60.013,257.889z
			 M80.525,246.085l-7.98-13.868l10.256-5.902l7.98,13.868L80.525,246.085z M101.037,234.281l-7.98-13.867l10.256-5.902l7.98,13.867
			L101.037,234.281z M121.549,222.477l-7.98-13.868l10.256-5.901l7.98,13.868L121.549,222.477z M142.061,210.673l-7.98-13.868
			l10.256-5.901l7.98,13.868L142.061,210.673z M162.573,198.87l-7.98-13.867l10.256-5.902l7.98,13.867L162.573,198.87z
			 M183.085,187.066l-7.98-13.868l10.256-5.902l7.98,13.868L183.085,187.066z M203.597,175.262l-7.98-13.868l10.256-5.902
			l7.98,13.868L203.597,175.262z M224.109,163.458l-7.98-13.867l10.256-5.902l7.98,13.867L224.109,163.458z"/>
	</g>
	<g>
		<path fill="#EC008C" d="M253.831,123.933h-16v-11.794h16V123.933z M253.831,100.345h-16V88.551h16V100.345z M253.831,76.756h-16
			V64.962h16V76.756z M253.831,53.167h-16V41.373h16V53.167z M253.831,29.578h-16V17.784h16V29.578z M253.831,5.989h-16V-5.805h16
			V5.989z M253.831-17.599h-16v-11.795h16V-17.599z M253.831-41.188h-16v-11.795h16V-41.188z M253.831-64.776h-16v-11.795h16
			V-64.776z M253.831-88.365h-16v-11.795h16V-88.365z M253.831-111.954h-16v-11.795h16V-111.954z"/>
	</g>
	<g>
		<path fill="#EC008C" d="M226.398-143.524l-10.236-5.91l8-13.856l10.236,5.91L226.398-143.524z M205.926-155.344l-10.237-5.909
			l7.999-13.856l10.237,5.909L205.926-155.344z M185.453-167.164l-10.236-5.91l8-13.856l10.236,5.91L185.453-167.164z
			 M164.98-178.983l-10.236-5.91l8-13.856l10.236,5.91L164.98-178.983z M144.507-190.803l-10.236-5.91l8-13.856l10.236,5.91
			L144.507-190.803z M124.034-202.623l-10.236-5.91l8-13.856l10.236,5.91L124.034-202.623z M103.563-214.443l-10.237-5.909
			l7.999-13.856l10.237,5.909L103.563-214.443z M83.089-226.262l-10.236-5.91l8-13.856l10.236,5.91L83.089-226.262z M62.616-238.082
			l-10.236-5.91l8-13.856l10.236,5.91L62.616-238.082z M42.144-249.902l-10.237-5.91l8-13.856l10.237,5.91L42.144-249.902z
			 M21.67-261.721l-10.236-5.91l8-13.856l10.236,5.91L21.67-261.721z"/>
	</g>
</g>
</svg>
