<?xml version="1.0" encoding="utf-8"?>
<!-- Generator: Adobe Illustrator 16.0.3, SVG Export Plug-In . SVG Version: 6.00 Build 0)  -->
<!DOCTYPE svg PUBLIC "-//W3C//DTD SVG 1.1//EN" "http://www.w3.org/Graphics/SVG/1.1/DTD/svg11.dtd">
<svg version="1.1" id="Layer_1" xmlns="http://www.w3.org/2000/svg" xmlns:xlink="http://www.w3.org/1999/xlink" x="0px" y="0px"
	 width="1024px" height="1024px" viewBox="0 0 1024 1024" enable-background="new 0 0 1024 1024" xml:space="preserve">
<polygon fill="none" stroke="#EC008C" stroke-miterlimit="10" points="-113.476,-201.605 -0.002,-267.118 0.002,-267.116 
	104.023,-207.059 -113.476,-81.483 "/>
<polygon fill="none" stroke="#EC008C" stroke-miterlimit="10" points="-231.666,-133.368 -231.666,-133.503 -127.64,-193.562 
	-127.64,-193.429 -127.64,56.544 -231.666,-3.514 "/>
<polygon fill="none" stroke="#EC008C" stroke-miterlimit="10" points="-231.569,133.019 -231.669,132.961 -231.669,12.839 
	-231.666,12.841 -14.166,138.413 -14.166,138.564 -118.057,198.553 "/>
<polygon fill="none" stroke="#EC008C" stroke-miterlimit="10" points="113.309,201.974 -0.002,266.875 -0.429,267.118 
	-104.458,207.059 -103.892,206.733 113.309,81.358 "/>
<polygon fill="none" stroke="#EC008C" stroke-miterlimit="10" points="113.476,64.913 -0.002,130.386 -0.002,130.236 
	-113.476,64.724 -113.476,-65.129 -0.002,-130.645 113.475,-65.129 113.475,64.913 "/>
<polygon fill="none" stroke="#EC008C" stroke-miterlimit="10" points="231.669,133.549 127.639,193.607 127.639,-56.952 
	231.669,3.11 "/>
<polygon fill="none" stroke="#EC008C" stroke-miterlimit="10" points="231.669,-13.246 14.162,-138.822 118.19,-198.884 
	231.669,-133.369 "/>
</svg>
